<mxfile host="65bd71144e">
    <diagram id="C5RBs43oDa-KdzZeNtuy" name="Page-1">
        <mxGraphModel dx="694" dy="455" grid="1" gridSize="10" guides="1" tooltips="1" connect="1" arrows="1" fold="1" page="1" pageScale="1" pageWidth="827" pageHeight="1169" math="0" shadow="0">
            <root>
                <mxCell id="WIyWlLk6GJQsqaUBKTNV-0"/>
                <mxCell id="WIyWlLk6GJQsqaUBKTNV-1" parent="WIyWlLk6GJQsqaUBKTNV-0"/>
                <mxCell id="24" value="" style="whiteSpace=wrap;html=1;aspect=fixed;rounded=0;fillColor=#008a00;strokeColor=#005700;fontColor=#ffffff;sketch=1;curveFitting=1;jiggle=2;" parent="WIyWlLk6GJQsqaUBKTNV-1" vertex="1">
                    <mxGeometry x="100" y="30" width="640" height="640" as="geometry"/>
                </mxCell>
                <mxCell id="48" value="User" style="swimlane;fontStyle=0;align=center;verticalAlign=top;childLayout=stackLayout;horizontal=1;startSize=26;horizontalStack=0;resizeParent=1;resizeLast=0;collapsible=1;marginBottom=0;rounded=0;shadow=0;strokeWidth=1;sketch=1;curveFitting=1;jiggle=2;" vertex="1" parent="WIyWlLk6GJQsqaUBKTNV-1">
                    <mxGeometry x="340" y="70" width="160" height="360" as="geometry">
                        <mxRectangle x="340" y="66" width="170" height="26" as="alternateBounds"/>
                    </mxGeometry>
                </mxCell>
                <mxCell id="49" value="id" style="text;align=left;verticalAlign=top;spacingLeft=4;spacingRight=4;overflow=hidden;rotatable=0;points=[[0,0.5],[1,0.5]];portConstraint=eastwest;sketch=1;curveFitting=1;jiggle=2;rounded=0;" vertex="1" parent="48">
                    <mxGeometry y="26" width="160" height="24" as="geometry"/>
                </mxCell>
                <mxCell id="50" value="name" style="text;align=left;verticalAlign=top;spacingLeft=4;spacingRight=4;overflow=hidden;rotatable=0;points=[[0,0.5],[1,0.5]];portConstraint=eastwest;sketch=1;curveFitting=1;jiggle=2;rounded=0;" vertex="1" parent="48">
                    <mxGeometry y="50" width="160" height="30" as="geometry"/>
                </mxCell>
                <mxCell id="55" value="uid  &#10;&#10;" style="text;align=left;verticalAlign=top;spacingLeft=4;spacingRight=4;overflow=hidden;rotatable=0;points=[[0,0.5],[1,0.5]];portConstraint=eastwest;sketch=1;curveFitting=1;jiggle=2;rounded=0;" vertex="1" parent="48">
                    <mxGeometry y="80" width="160" height="30" as="geometry"/>
                </mxCell>
                <mxCell id="56" value="password" style="text;align=left;verticalAlign=top;spacingLeft=4;spacingRight=4;overflow=hidden;rotatable=0;points=[[0,0.5],[1,0.5]];portConstraint=eastwest;sketch=1;curveFitting=1;jiggle=2;rounded=0;" vertex="1" parent="48">
                    <mxGeometry y="110" width="160" height="30" as="geometry"/>
                </mxCell>
                <mxCell id="58" value="role" style="text;align=left;verticalAlign=top;spacingLeft=4;spacingRight=4;overflow=hidden;rotatable=0;points=[[0,0.5],[1,0.5]];portConstraint=eastwest;sketch=1;curveFitting=1;jiggle=2;rounded=0;" vertex="1" parent="48">
                    <mxGeometry y="140" width="160" height="30" as="geometry"/>
                </mxCell>
                <mxCell id="59" value="pfp" style="text;align=left;verticalAlign=top;spacingLeft=4;spacingRight=4;overflow=hidden;rotatable=0;points=[[0,0.5],[1,0.5]];portConstraint=eastwest;sketch=1;curveFitting=1;jiggle=2;rounded=0;" vertex="1" parent="48">
                    <mxGeometry y="170" width="160" height="30" as="geometry"/>
                </mxCell>
                <mxCell id="51" value="" style="line;html=1;strokeWidth=1;align=left;verticalAlign=middle;spacingTop=-1;spacingLeft=3;spacingRight=3;rotatable=0;labelPosition=right;points=[];portConstraint=eastwest;sketch=1;curveFitting=1;jiggle=2;rounded=0;" vertex="1" parent="48">
                    <mxGeometry y="200" width="160" height="8" as="geometry"/>
                </mxCell>
                <mxCell id="52" value="__init__()" style="text;align=left;verticalAlign=top;spacingLeft=4;spacingRight=4;overflow=hidden;rotatable=0;points=[[0,0.5],[1,0.5]];portConstraint=eastwest;sketch=1;curveFitting=1;jiggle=2;rounded=0;" vertex="1" parent="48">
                    <mxGeometry y="208" width="160" height="26" as="geometry"/>
                </mxCell>
                <mxCell id="53" value="create()" style="text;align=left;verticalAlign=top;spacingLeft=4;spacingRight=4;overflow=hidden;rotatable=0;points=[[0,0.5],[1,0.5]];portConstraint=eastwest;sketch=1;curveFitting=1;jiggle=2;rounded=0;" vertex="1" parent="48">
                    <mxGeometry y="234" width="160" height="26" as="geometry"/>
                </mxCell>
                <mxCell id="54" value="read()" style="text;align=left;verticalAlign=top;spacingLeft=4;spacingRight=4;overflow=hidden;rotatable=0;points=[[0,0.5],[1,0.5]];portConstraint=eastwest;sketch=1;curveFitting=1;jiggle=2;rounded=0;" vertex="1" parent="48">
                    <mxGeometry y="260" width="160" height="30" as="geometry"/>
                </mxCell>
                <mxCell id="61" value="update()" style="text;align=left;verticalAlign=top;spacingLeft=4;spacingRight=4;overflow=hidden;rotatable=0;points=[[0,0.5],[1,0.5]];portConstraint=eastwest;sketch=1;curveFitting=1;jiggle=2;rounded=0;" vertex="1" parent="48">
                    <mxGeometry y="290" width="160" height="26" as="geometry"/>
                </mxCell>
                <mxCell id="62" value="delete()" style="text;align=left;verticalAlign=top;spacingLeft=4;spacingRight=4;overflow=hidden;rotatable=0;points=[[0,0.5],[1,0.5]];portConstraint=eastwest;sketch=1;curveFitting=1;jiggle=2;rounded=0;" vertex="1" parent="WIyWlLk6GJQsqaUBKTNV-1">
                    <mxGeometry x="340" y="390" width="160" height="26" as="geometry"/>
                </mxCell>
            </root>
        </mxGraphModel>
    </diagram>
</mxfile>